<svg xmlns="http://www.w3.org/2000/svg" width="806" height="497" viewBox="0 0 806 497">
  <rect id="Rectangle_15" data-name="Rectangle 15" width="806" height="497" fill="#dbe7ff"/>
  <rect id="Rectangle_11" data-name="Rectangle 11" width="249" height="246" transform="translate(445 124)" fill="#ff8989"/>
  <text id="WIT" transform="translate(149 363)" fill="#0d2650" font-size="314" font-family="ShreeDev0714, 'Shree Devanagari \37 14'"><tspan x="0" y="0">WIT</tspan></text>
  <g id="Ellipse_14" data-name="Ellipse 14" transform="translate(42.218 144.636) rotate(-14)" fill="#ff8989" stroke="#0d2650" stroke-width="12">
    <circle cx="32.5" cy="32.5" r="32.5" stroke="none"/>
    <circle cx="32.5" cy="32.5" r="26.5" fill="none"/>
  </g>
  <g id="Path_5" data-name="Path 5" transform="translate(90.437 314.225) rotate(-14)" fill="#ff8989">
    <path d="M 32.5 59 C 17.88785743713379 59 6 47.11214447021484 6 32.5 C 6 17.88785743713379 17.88785743713379 6 32.5 6 C 47.11214447021484 6 59 17.88785743713379 59 32.5 C 59 39.26654434204102 56.51259994506836 45.54364395141602 51.80668640136719 50.65271377563477 C 46.92296981811523 55.95801544189453 39.88639831542969 59 32.5 59 Z" stroke="none"/>
    <path d="M 32.5 12 C 21.19625854492188 12 12 21.19625854492188 12 32.5 C 12 43.80374145507812 21.19625854492188 53 32.5 53 C 38.21377944946289 53 43.64138031005859 50.66379928588867 47.39350128173828 46.5877799987793 C 51.06130218505859 42.60573959350586 53 37.73426055908203 53 32.5 C 53 21.19625854492188 43.80374145507812 12 32.5 12 M 32.5 0 C 50.44926071166992 0 65 14.55073928833008 65 32.5 C 65 40.98999786376953 61.74457931518555 48.71964263916016 56.21987915039062 54.71765899658203 C 50.47463989257812 60.95883941650391 41.95925903320312 65 32.5 65 C 14.55073928833008 65 0 50.44926071166992 0 32.5 C 0 14.55073928833008 14.55073928833008 0 32.5 0 Z" stroke="none" fill="#0d2650"/>
  </g>
  <g id="Path_3" data-name="Path 3" transform="translate(61.04 223.43) rotate(-14)" fill="#0d2650">
    <path d="M 32.5 64.5 C 28.1798095703125 64.5 23.98911094665527 63.65399932861328 20.04430961608887 61.98548889160156 C 16.23382949829102 60.3737907409668 12.8115701675415 58.06639862060547 9.872579574584961 55.12741851806641 C 6.933599948883057 52.18843078613281 4.62621021270752 48.76617050170898 3.014509916305542 44.9556884765625 C 1.345999956130981 41.01089096069336 0.5 36.8201904296875 0.5 32.5 C 0.5 28.1798095703125 1.345999956130981 23.98911094665527 3.014509916305542 20.04430961608887 C 4.62621021270752 16.23382949829102 6.933599948883057 12.8115701675415 9.872579574584961 9.872579574584961 C 12.8115701675415 6.933599948883057 16.23382949829102 4.62621021270752 20.04430961608887 3.014509916305542 C 23.98911094665527 1.345999956130981 28.1798095703125 0.5 32.5 0.5 C 36.8201904296875 0.5 41.01089096069336 1.345999956130981 44.9556884765625 3.014509916305542 C 48.76617050170898 4.62621021270752 52.18843078613281 6.933599948883057 55.12741851806641 9.872579574584961 C 58.06639862060547 12.8115701675415 60.3737907409668 16.23382949829102 61.98548889160156 20.04430961608887 C 63.65399932861328 23.98911094665527 64.5 28.1798095703125 64.5 32.5 C 64.5 36.8201904296875 63.65399932861328 41.01089096069336 61.98548889160156 44.9556884765625 C 60.3737907409668 48.76617050170898 58.06639862060547 52.18843078613281 55.12741851806641 55.12741851806641 C 52.18843078613281 58.06639862060547 48.76617050170898 60.3737907409668 44.9556884765625 61.98548889160156 C 41.01089096069336 63.65399932861328 36.8201904296875 64.5 32.5 64.5 Z" stroke="none"/>
    <path d="M 32.5 1 C 28.24708938598633 1 24.12192153930664 1.832721710205078 20.23908996582031 3.475021362304688 C 16.48820877075195 5.061500549316406 13.11936950683594 7.332908630371094 10.22613906860352 10.22613906860352 C 7.332908630371094 13.11936950683594 5.061500549316406 16.48820877075195 3.475021362304688 20.23908996582031 C 1.832721710205078 24.12192153930664 1 28.24708938598633 1 32.5 C 1 36.75291061401367 1.832721710205078 40.87808227539062 3.475021362304688 44.76091003417969 C 5.061500549316406 48.51178741455078 7.332908630371094 51.88063049316406 10.22613906860352 54.77386093139648 C 13.11936950683594 57.66709136962891 16.48820877075195 59.93849945068359 20.23908996582031 61.52497863769531 C 24.12192153930664 63.16727828979492 28.24708938598633 64 32.5 64 C 36.75291061401367 64 40.87808227539062 63.16727828979492 44.76091003417969 61.52497863769531 C 48.51178741455078 59.93849945068359 51.88063049316406 57.66709136962891 54.77386093139648 54.77386093139648 C 57.66709136962891 51.88063049316406 59.93849945068359 48.51178741455078 61.52497863769531 44.76091003417969 C 63.16727828979492 40.87808227539062 64 36.75291061401367 64 32.5 C 64 28.24708938598633 63.16727828979492 24.12192153930664 61.52497863769531 20.23908996582031 C 59.93849945068359 16.48820877075195 57.66709136962891 13.11936950683594 54.77386093139648 10.22613906860352 C 51.88063049316406 7.332908630371094 48.51178741455078 5.061500549316406 44.76091003417969 3.475021362304688 C 40.87808227539062 1.832721710205078 36.75291061401367 1 32.5 1 M 32.5 0 C 50.44924926757812 0 65 14.55075073242188 65 32.5 C 65 50.44924926757812 50.44924926757812 65 32.5 65 C 14.55075073242188 65 0 50.44924926757812 0 32.5 C 0 14.55075073242188 14.55075073242188 0 32.5 0 Z" stroke="none" fill="#000"/>
  </g>
</svg>
